<?xml version="1.0" encoding="UTF-8"?>
<svg version="1.1" xmlns="http://www.w3.org/2000/svg" width="556" height="556">
<path d="M0 0 C0.94228958 -0.00701431 1.88457916 -0.01402863 2.85542297 -0.02125549 C5.88022698 -0.03866509 8.90483523 -0.04510788 11.9296875 -0.046875 C12.9628006 -0.04754974 13.9959137 -0.04822449 15.06033325 -0.04891968 C30.19503005 -0.03319585 44.8988696 0.34732432 59.8046875 3.203125 C60.71976074 3.36941406 61.63483398 3.53570312 62.57763672 3.70703125 C84.22377738 7.7148886 105.51564456 14.05199646 125.56005859 23.18212891 C127.82709245 24.21331616 130.1061151 25.21408681 132.38671875 26.21484375 C149.94229473 34.07321188 166.85819245 44.06766801 181.8046875 56.203125 C182.73023438 56.93917969 183.65578125 57.67523438 184.609375 58.43359375 C201.38469791 71.93284944 217.75902743 87.01722551 230.8046875 104.203125 C231.58457031 105.17765625 232.36445313 106.1521875 233.16796875 107.15625 C267.97634028 150.83560428 290.72675852 209.23496615 291.0078125 265.3984375 C291.01482681 266.34072708 291.02184113 267.28301666 291.02906799 268.25386047 C291.04647759 271.27866448 291.05292038 274.30327273 291.0546875 277.328125 C291.05569962 278.87779465 291.05569962 278.87779465 291.05673218 280.45877075 C291.04101426 295.58778316 290.6802952 310.30502981 287.8046875 325.203125 C287.62776367 326.15010254 287.45083984 327.09708008 287.26855469 328.07275391 C274.76062294 393.60437906 239.49229823 456.47180042 185.8046875 497.203125 C184.87785156 497.92371094 183.95101563 498.64429688 182.99609375 499.38671875 C138.71535176 533.31764588 81.88358542 556.12464186 25.609375 556.40625 C24.66708542 556.41326431 23.72479584 556.42027863 22.75395203 556.42750549 C19.72914802 556.44491509 16.70453977 556.45135788 13.6796875 556.453125 C12.6465744 556.45379974 11.6134613 556.45447449 10.54904175 556.45516968 C-4.58565505 556.43944585 -19.2894946 556.05892568 -34.1953125 553.203125 C-35.56792236 552.95369141 -35.56792236 552.95369141 -36.96826172 552.69921875 C-75.41616228 545.5804578 -113.25430701 530.94046082 -145.1953125 508.203125 C-146.66871094 507.17058594 -146.66871094 507.17058594 -148.171875 506.1171875 C-169.19101337 491.13735086 -189.47138399 472.7442108 -205.1953125 452.203125 C-206.36900391 450.73746094 -206.36900391 450.73746094 -207.56640625 449.2421875 C-242.3637282 405.55229261 -265.11736192 347.1755993 -265.3984375 291.0078125 C-265.40545181 290.06552292 -265.41246613 289.12323334 -265.41969299 288.15238953 C-265.43710259 285.12758552 -265.44354538 282.10297727 -265.4453125 279.078125 C-265.44598724 278.0450119 -265.44666199 277.0118988 -265.44735718 275.94747925 C-265.43163926 260.81846684 -265.0709202 246.10122019 -262.1953125 231.203125 C-262.01838867 230.25614746 -261.84146484 229.30916992 -261.65917969 228.33349609 C-259.05714313 214.7008918 -255.55577023 201.3759575 -251.1953125 188.203125 C-250.94056152 187.43081543 -250.68581055 186.65850586 -250.42333984 185.86279297 C-236.67864109 144.92168714 -212.59848449 109.50838017 -182.1953125 79.203125 C-181.33035156 78.30335937 -180.46539062 77.40359375 -179.57421875 76.4765625 C-172.30348074 68.95229938 -164.55988802 62.47096235 -156.1953125 56.203125 C-154.96348972 55.26439108 -153.73171927 54.32558849 -152.5 53.38671875 C-109.77091583 21.12315578 -53.76328912 0.26904296 0 0 Z " fill="#009400" transform="translate(265.1953125,-0.203125)"/>
<path d="M0 0 C0 91.74 0 183.48 0 278 C-92.4 278 -184.8 278 -280 278 C-280 251.26234568 -280 251.26234568 -278.8125 243 C-278.68012939 242.0212793 -278.54775879 241.04255859 -278.41137695 240.03417969 C-275.88374898 222.30530341 -271.62423153 204.9906612 -266 188 C-265.74524902 187.22769043 -265.49049805 186.45538086 -265.22802734 185.65966797 C-251.48332859 144.71856214 -227.40317199 109.30525517 -197 79 C-196.13503906 78.10023437 -195.27007812 77.20046875 -194.37890625 76.2734375 C-187.10816824 68.74917438 -179.36457552 62.26783735 -171 56 C-169.76817722 55.06126608 -168.53640677 54.12246349 -167.3046875 53.18359375 C-118.91086938 16.64274509 -60.06077386 0 0 0 Z " fill="#ECEDEC" transform="translate(280,0)"/>
<path d="M0 0 C2.49013641 2.49013641 2.90461637 4.43113739 3.91796875 7.80078125 C4.28599609 9.00798828 4.65402344 10.21519531 5.03320312 11.45898438 C5.41840192 12.74335975 5.80316844 14.02786485 6.1875 15.3125 C9.90351664 27.62635907 13.92899696 39.78699089 18 52 C36.48 52.33 54.96 52.66 74 53 C68.37641723 58.62358277 68.37641723 58.62358277 65.20703125 60.875 C64.50263916 61.37926514 63.79824707 61.88353027 63.07250977 62.40307617 C62.32670654 62.93006104 61.58090332 63.4570459 60.8125 64 C59.21342844 65.14176853 57.61447372 66.28370069 56.015625 67.42578125 C55.19384766 68.01053223 54.37207031 68.5952832 53.52539062 69.19775391 C49.35590036 72.17331241 45.21068097 75.18234511 41.0625 78.1875 C39.57468898 79.26497252 38.08644218 80.3418437 36.59765625 81.41796875 C35.66191772 82.09508911 35.66191772 82.09508911 34.70727539 82.78588867 C33.15890613 83.88699554 31.58087009 84.94608661 30 86 C31.31044034 92.30681414 32.96828785 98.34539954 35.00390625 104.453125 C35.28725327 105.3163739 35.57060028 106.1796228 35.86253357 107.06903076 C36.75847263 109.79737384 37.65997513 112.52382907 38.5625 115.25 C39.46808739 117.99061243 40.37237117 120.73162829 41.2731781 123.47381592 C41.83119634 125.17207952 42.39198859 126.8694349 42.95594788 128.56573486 C44.20286719 132.3565517 45.3482921 136.05103729 46 140 C42.22657075 137.95605916 38.70593477 135.85540412 35.296875 133.24609375 C30.99855321 129.98756026 26.63127035 126.83318566 22.25 123.6875 C15.10163219 118.54188852 8.01639698 113.32420712 1 108 C-3.68623625 110.5689255 -7.86055809 113.29597763 -12.0625 116.625 C-18.34541137 121.5480534 -24.80088788 126.18980379 -31.31445312 130.80078125 C-35.57055251 133.82887514 -39.78243424 136.91859481 -44 140 C-45.10859833 136.67420501 -44.92902886 136.03073492 -43.87597656 132.83911133 C-43.46995209 131.58684502 -43.46995209 131.58684502 -43.0557251 130.3092804 C-42.75374207 129.40928818 -42.45175903 128.50929596 -42.140625 127.58203125 C-41.68305817 126.1852137 -41.68305817 126.1852137 -41.21624756 124.76017761 C-40.23581198 121.77480654 -39.24287076 118.79375546 -38.25 115.8125 C-37.59557441 113.82252189 -36.94191942 111.83229018 -36.2890625 109.84179688 C-33.65496507 101.84090758 -31.00796564 93.86939912 -28 86 C-28.53367188 85.75894531 -29.06734375 85.51789063 -29.6171875 85.26953125 C-32.64075219 83.65861564 -35.35901782 81.69592773 -38.125 79.6875 C-39.02448364 79.03914185 -39.02448364 79.03914185 -39.94213867 78.37768555 C-41.25476502 77.43103991 -42.5664929 76.4831475 -43.87744141 75.53417969 C-46.11633789 73.91591128 -48.36047383 72.3051084 -50.60546875 70.6953125 C-69.1270537 57.39732131 -69.1270537 57.39732131 -73 54 C-73 53.67 -73 53.34 -73 53 C-54.52 53 -36.04 53 -17 53 C-15.515 47.06 -15.515 47.06 -14 41 C-13.24956214 38.45724977 -12.47336024 35.92181519 -11.66015625 33.3984375 C-11.45192734 32.75105621 -11.24369843 32.10367493 -11.02915955 31.43667603 C-10.59501104 30.09030068 -10.1589452 28.74454206 -9.72094727 27.39941406 C-9.06159365 25.37221339 -8.41029063 23.34254873 -7.75976562 21.3125 C-5.43203994 14.09566055 -2.95649434 6.98581814 0 0 Z " fill="#029302" transform="translate(158,87)"/>
<path d="M0 0 C6.93 0 13.86 0 21 0 C21 0.33 21 0.66 21 1 C14.73 1 8.46 1 2 1 C2.00138269 3.13861039 2.00138269 3.13861039 2.00279331 5.32042503 C2.02443257 39.13440139 2.04093119 72.94837643 2.05106533 106.76235821 C2.0523161 110.92067372 2.05361041 115.07898921 2.05493164 119.23730469 C2.05532511 120.47911819 2.05532511 120.47911819 2.05572652 121.74601884 C2.06008255 135.16594564 2.06796973 148.58586816 2.0771528 162.00579242 C2.08649121 175.76709283 2.09205601 189.52839099 2.09408849 203.28969443 C2.09546333 211.78700294 2.09981181 220.28429939 2.10791647 228.78160419 C2.11318623 234.60174728 2.11480377 240.4218841 2.11350138 246.24202941 C2.11285836 249.60423259 2.11441116 252.96639753 2.11920547 256.32859993 C2.12414143 259.96691706 2.12299862 263.60518154 2.12025452 267.24349976 C2.12462378 268.85145025 2.12462378 268.85145025 2.12908131 270.49188459 C2.12709026 271.46076726 2.12509921 272.42964993 2.12304783 273.42789268 C2.12342755 274.2685935 2.12380727 275.10929431 2.1241985 275.9754709 C2 278 2 278 1 280 C-2.38261119 281.66258387 -5.13145678 282.24953515 -8.87878132 282.24609566 C-9.83970355 282.25007775 -10.80062579 282.25405985 -11.79066688 282.25816262 C-12.83833156 282.25233693 -13.88599623 282.24651125 -14.96540833 282.24050903 C-16.08449024 282.24221788 -17.20357216 282.24392673 -18.35656565 282.24568737 C-22.11383311 282.2489868 -25.87092277 282.2379709 -29.62817383 282.22705078 C-32.31853641 282.22648677 -35.00888803 282.22671493 -37.69924927 282.22793579 C-43.49523071 282.22898429 -49.29116711 282.22271139 -55.08713722 282.21146011 C-63.46712134 282.19520328 -71.84708368 282.18999692 -80.22708186 282.18748413 C-93.82319387 282.18310732 -107.41928188 282.16979858 -121.01538086 282.15087891 C-134.22241089 282.13251976 -147.4294344 282.11836342 -160.63647461 282.10986328 C-161.45061078 282.10933783 -162.26474696 282.10881239 -163.10355393 282.10827102 C-167.18785217 282.10566094 -171.27215045 282.10313352 -175.35644877 282.10064721 C-209.23764992 282.07991513 -243.11882202 282.04468997 -277 282 C-277.0147493 285.77082909 -277.02348192 289.54165058 -277.03125 293.3125 C-277.03543945 294.36501953 -277.03962891 295.41753906 -277.04394531 296.50195312 C-277.05860029 306.02769058 -276.62752877 315.49742148 -276 325 C-276.33 325 -276.66 325 -277 325 C-277.52696429 321.48270025 -278.01566859 317.96090196 -278.5 314.4375 C-278.71462891 313.00954102 -278.71462891 313.00954102 -278.93359375 311.55273438 C-280.46107618 300.16935339 -280 289.83238238 -280 278 C-187.6 278 -95.2 278 0 278 C0 186.26 0 94.52 0 0 Z " fill="#289628" transform="translate(280,0)"/>
<path d="M0 0 C2 3 2 3 5 13 C23.48 13.33 41.96 13.66 61 14 C55.375 19.625 55.375 19.625 52.66796875 21.45703125 C52.09755859 21.84697266 51.52714844 22.23691406 50.93945312 22.63867188 C50.36130859 23.02603516 49.78316406 23.41339844 49.1875 23.8125 C48.2912793 24.42254883 48.2912793 24.42254883 47.37695312 25.04492188 C45.92125436 26.03479703 44.46108826 27.01809735 43 28 C43 27.01 43 26.02 43 25 C43.66 25 44.32 25 45 25 C45 23.68 45 22.36 45 21 C45 19.33333333 45 17.66666667 45 16 C43.20598755 16.01571045 43.20598755 16.01571045 41.37573242 16.03173828 C36.94216907 16.06791405 32.50861879 16.09089166 28.07495117 16.10986328 C26.15533251 16.11992639 24.23572919 16.13357816 22.31616211 16.15087891 C19.55839248 16.17511364 16.80082536 16.18647992 14.04296875 16.1953125 C13.18350143 16.20563507 12.32403412 16.21595764 11.43852234 16.22659302 C10.23761711 16.22681961 10.23761711 16.22681961 9.01245117 16.22705078 C8.3085173 16.231492 7.60458344 16.23593323 6.87931824 16.24050903 C5 16 5 16 2 14 C-0.16371219 9.21705726 -0.17726741 5.14075497 0 0 Z " fill="#0C8D0D" transform="translate(171,126)"/>
<path d="M0 0 C18.48 0 36.96 0 56 0 C53.56241092 2.43758908 52.89665856 2.2639892 49.55029297 2.31884766 C48.62948944 2.33871735 47.70868591 2.35858704 46.75997925 2.37905884 C45.76410797 2.39061005 44.76823669 2.40216125 43.7421875 2.4140625 C42.72399933 2.43342865 41.70581116 2.4527948 40.6567688 2.4727478 C37.39626511 2.53265355 34.13572633 2.57897299 30.875 2.625 C28.66795313 2.66316965 26.46092131 2.70222077 24.25390625 2.7421875 C18.83607089 2.83836394 13.41814527 2.92337899 8 3 C8.33 3.66 8.66 4.32 9 5 C10.65 5 12.3 5 14 5 C14 6.32 14 7.64 14 9 C14.66 9 15.32 9 16 9 C16 9.66 16 10.32 16 11 C16.99 11.33 17.98 11.66 19 12 C18.34 12.66 17.68 13.32 17 14 C14.16280617 11.85923251 11.33091337 9.71156381 8.5 7.5625 C7.68917969 6.95083984 6.87835938 6.33917969 6.04296875 5.70898438 C5.27597656 5.12568359 4.50898437 4.54238281 3.71875 3.94140625 C3.00654297 3.40201416 2.29433594 2.86262207 1.56054688 2.30688477 C1.04556641 1.87561279 0.53058594 1.44434082 0 1 C0 0.67 0 0.34 0 0 Z " fill="#2D962C" transform="translate(85,140)"/>
<path d="M0 0 C2 3 2 3 5 13 C23.48 13.33 41.96 13.66 61 14 C59 16 59 16 56.65370178 16.2361908 C55.67235764 16.2290657 54.69101349 16.22194061 53.67993164 16.21459961 C52.56860367 16.21056625 51.4572757 16.2065329 50.31227112 16.20237732 C49.10707321 16.18586624 47.90187531 16.16935516 46.66015625 16.15234375 C44.81060585 16.13259239 44.81060585 16.13259239 42.9236908 16.11244202 C40.31176356 16.07996319 37.69990241 16.04174831 35.08813477 15.99829102 C32.40606253 15.95415039 29.72464197 15.92654501 27.04223633 15.91430664 C23.18497378 15.893195 19.32945189 15.83943007 15.47265625 15.77734375 C14.26948257 15.77500229 13.0663089 15.77266083 11.82667542 15.77024841 C10.71219528 15.74414993 9.59771515 15.71805145 8.44946289 15.69116211 C7.46732315 15.67846786 6.48518341 15.66577362 5.47328186 15.6526947 C3 15 3 15 1.17771912 12.6240387 C-0.1231822 9.72554163 -0.31368333 7.8420833 -0.1875 4.6875 C-0.16042969 3.80449219 -0.13335937 2.92148438 -0.10546875 2.01171875 C-0.07066406 1.34785156 -0.03585938 0.68398437 0 0 Z " fill="#4EA54F" transform="translate(171,126)"/>
<path d="M0 0 C0.66 0 1.32 0 2 0 C2.67057887 1.7902061 3.3363469 3.58221489 4 5.375 C4.556875 6.87160156 4.556875 6.87160156 5.125 8.3984375 C6 11 6 11 6 13 C23.82 13 41.64 13 60 13 C60 13.33 60 13.66 60 14 C41.52 14 23.04 14 4 14 C0.625 5 0.625 5 0 0 Z M7 9 C7.33 9.66 7.66 10.32 8 11 C7.34 10.67 6.68 10.34 6 10 C6.33 9.67 6.66 9.34 7 9 Z " fill="#E4FEE3" transform="translate(172,126)"/>
<path d="M0 0 C6.27193283 1.89616574 10.45676523 4.30010196 15 9 C15.66 9.33 16.32 9.66 17 10 C16.67 9.01 16.34 8.02 16 7 C17.32 7.33 18.64 7.66 20 8 C20.33 7.34 20.66 6.68 21 6 C21 9.11257569 20.82638376 11.10765685 20 14 C20.94875 14.2475 21.8975 14.495 22.875 14.75 C26 16 26 16 27.1953125 18.078125 C27.46085937 18.71234375 27.72640625 19.3465625 28 20 C21.91370425 16.94215093 16.74997147 13.33833846 11.5078125 9 C8.34764305 6.47974025 5.02694019 4.29392223 1.6171875 2.12890625 C1.08351562 1.75636719 0.54984375 1.38382813 0 1 C0 0.67 0 0.34 0 0 Z " fill="#1D911D" transform="translate(168,201)"/>
<path d="M0 0 C2.80276459 4.20414688 4.09387024 8.72869167 5.6875 13.5 C6.02072266 14.46292969 6.35394531 15.42585937 6.69726562 16.41796875 C7.00728516 17.34222656 7.31730469 18.26648438 7.63671875 19.21875 C7.92248779 20.06373047 8.20825684 20.90871094 8.50268555 21.77929688 C9 24 9 24 8 27 C5.69 25.35 3.38 23.7 1 22 C1.66 21.67 2.32 21.34 3 21 C3.04125 19.72125 3.0825 18.4425 3.125 17.125 C3.14820313 16.40570313 3.17140625 15.68640625 3.1953125 14.9453125 C3.18331689 12.76136355 3.18331689 12.76136355 1 11 C0.5859375 8.3984375 0.5859375 8.3984375 0.375 5.375 C0.30023438 4.37210938 0.22546875 3.36921875 0.1484375 2.3359375 C0.09945312 1.56507813 0.05046875 0.79421875 0 0 Z " fill="#29912A" transform="translate(195,200)"/>
<path d="M0 0 C1.0625 1.875 1.0625 1.875 2 4 C1.67 4.66 1.34 5.32 1 6 C-17.15 6 -35.3 6 -54 6 C-54 5.67 -54 5.34 -54 5 C-36.84 4.67 -19.68 4.34 -2 4 C-1.34 2.68 -0.68 1.36 0 0 Z " fill="#E3FCE2" transform="translate(140,134)"/>
<path d="M0 0 C0.66 0.33 1.32 0.66 2 1 C0.49687867 4.82612703 -1.62801551 6.70091967 -5 9 C-6.051875 9.33 -7.10375 9.66 -8.1875 10 C-11.12720006 10.72363689 -11.12720006 10.72363689 -12.375 13.125 C-12.58125 13.74375 -12.7875 14.3625 -13 15 C-13.99 15 -14.98 15 -16 15 C-15.61331598 12.66347422 -15.33259982 11.32619915 -13.6171875 9.64379883 C-13.04226562 9.25216553 -12.46734375 8.86053223 -11.875 8.45703125 C-11.25109375 8.02326172 -10.6271875 7.58949219 -9.984375 7.14257812 C-9.32953125 6.70365234 -8.6746875 6.26472656 -8 5.8125 C-6.70802206 4.92362935 -5.41633995 4.03432851 -4.125 3.14453125 C-3.09375 2.43683594 -2.0625 1.72914063 -1 1 C-0.67 0.67 -0.34 0.34 0 0 Z " fill="#D7F2D5" transform="translate(203,161)"/>
<path d="M0 0 C0.33 0 0.66 0 1 0 C1.05437607 1.58294782 1.09296271 3.16644256 1.125 4.75 C1.14820312 5.63171875 1.17140625 6.5134375 1.1953125 7.421875 C0.99139502 10.1135858 0.36551721 11.69904974 -1 14 C-1.66 14 -2.32 14 -3 14 C-2.67 16.31 -2.34 18.62 -2 21 C-2.99 21 -3.98 21 -5 21 C-5 21.99 -5 22.98 -5 24 C-5.66 24 -6.32 24 -7 24 C-5.40554307 15.73781407 -2.73981931 7.93711014 0 0 Z " fill="#229321" transform="translate(123,193)"/>
<path d="M0 0 C1.48555383 0.92734572 2.96327506 1.86724813 4.4375 2.8125 C5.26121094 3.33457031 6.08492187 3.85664063 6.93359375 4.39453125 C9 6 9 6 10 9 C3.375 10.25 3.375 10.25 0 8 C1 5 1 5 2 4 C1.34 2.68 0.68 1.36 0 0 Z " fill="#DFEEE1" transform="translate(191,218)"/>
<path d="M0 0 C1.7541123 1.07666203 3.50312587 2.16163339 5.25 3.25 C6.71179688 4.15492188 6.71179688 4.15492188 8.203125 5.078125 C10.79705245 6.86054442 12.86377619 8.70101628 15 11 C14.01 11.495 14.01 11.495 13 12 C10.5249829 10.88568235 8.32116581 9.41849022 6 8 C6 7.01 6 6.02 6 5 C3.36 5 0.72 5 -2 5 C-2 4.01 -2 3.02 -2 2 C-1.34 2 -0.68 2 0 2 C0 1.34 0 0.68 0 0 Z " fill="#DEF1DD" transform="translate(97,150)"/>
<path d="M0 0 C-2.10034847 1.65091584 -4.20495833 3.29581238 -6.3125 4.9375 C-6.90740234 5.40607422 -7.50230469 5.87464844 -8.11523438 6.35742188 C-10.72700884 8.38555959 -12.83892403 9.94630801 -16 11 C-16.33 10.34 -16.66 9.68 -17 9 C-16.34 9 -15.68 9 -15 9 C-14.34 7.68 -13.68 6.36 -13 5 C-12.01 5 -11.02 5 -10 5 C-10 4.34 -10 3.68 -10 3 C-9.01 3 -8.02 3 -7 3 C-7 2.34 -7 1.68 -7 1 C-3.375 -1.125 -3.375 -1.125 0 0 Z " fill="#1C8D1F" transform="translate(203,162)"/>
<path d="M0 0 C0.99 0.33 1.98 0.66 3 1 C-0.71750779 5.20240011 -5.31660979 7.99782679 -10 11 C-10.66 10.34 -11.32 9.68 -12 9 C-11.34 9 -10.68 9 -10 9 C-10.66 7.68 -11.32 6.36 -12 5 C-10.68 5 -9.36 5 -8 5 C-4.19255603 4.5240695 -2.53160272 2.80284587 0 0 Z " fill="#149216" transform="translate(147,199)"/>
<path d="M0 0 C0.66 1.32 1.32 2.64 2 4 C1 5 0 6 -1 7 C-1.99 7 -2.98 7 -4 7 C-4.33 7.66 -4.66 8.32 -5 9 C-6.98 9 -8.96 9 -11 9 C-7.56638098 5.36440339 -4.2026393 2.63886654 0 0 Z " fill="#DCEED8" transform="translate(125,218)"/>
<path d="M0 0 C4.80601986 2.79059218 9.39218947 5.8980099 14 9 C13.01 9.33 12.02 9.66 11 10 C10.34 10.66 9.68 11.32 9 12 C9 11.34 9 10.68 9 10 C8.01 10 7.02 10 6 10 C5.9071875 9.1028125 5.9071875 9.1028125 5.8125 8.1875 C4.68390926 5.14898647 2.7237223 4.60629777 0 3 C0 2.01 0 1.02 0 0 Z " fill="#DEF0DF" transform="translate(163,198)"/>
<path d="M0 0 C0.33 0.66 0.66 1.32 1 2 C1.99 2 2.98 2 4 2 C5.02196992 2.97753644 6.01979625 3.9805881 7 5 C7.61875 5.28875 8.2375 5.5775 8.875 5.875 C11.77722961 7.4114745 13.68495074 9.68495074 16 12 C16.928125 12.556875 17.85625 13.11375 18.8125 13.6875 C19.534375 14.120625 20.25625 14.55375 21 15 C21 15.66 21 16.32 21 17 C16.98466249 15.21317481 13.55362026 12.67498274 10 10.125 C9.38382813 9.69058594 8.76765625 9.25617188 8.1328125 8.80859375 C4.79949899 6.42663367 1.80371913 4.01399806 -1 1 C-0.67 0.67 -0.34 0.34 0 0 Z " fill="#268C26" transform="translate(105,153)"/>
<path d="M0 0 C2.4375 1.875 2.4375 1.875 4 4 C4 4.66 4 5.32 4 6 C1.0280615 4.87548273 -1.33440687 3.77706209 -4 2 C-6.64 3.65 -9.28 5.3 -12 7 C-12 4 -12 4 -9.9375 1.8125 C-6.26603086 -0.45287458 -4.24631391 -0.61764566 0 0 Z " fill="#208D23" transform="translate(162,193)"/>
<path d="M0 0 C0.33 0.99 0.66 1.98 1 3 C0.360625 3.2475 -0.27875 3.495 -0.9375 3.75 C-3.18741541 4.81562433 -3.18741541 4.81562433 -3.75 7.125 C-3.8325 7.74375 -3.915 8.3625 -4 9 C-5.65 9.33 -7.3 9.66 -9 10 C-9.33 9.01 -9.66 8.02 -10 7 C-6.7 4.69 -3.4 2.38 0 0 Z " fill="#DAEFD8" transform="translate(136,210)"/>
<path d="M0 0 C2.97 0.33 5.94 0.66 9 1 C9 2.32 9 3.64 9 5 C9.66 5 10.32 5 11 5 C11 5.66 11 6.32 11 7 C11.99 7.33 12.98 7.66 14 8 C13.34 8.66 12.68 9.32 12 10 C9.99708788 8.52464063 7.99763223 7.04497707 6 5.5625 C5.42765625 5.14162109 4.8553125 4.72074219 4.265625 4.28710938 C2.82546081 3.21555864 1.41048004 2.11033324 0 1 C0 0.67 0 0.34 0 0 Z " fill="#219020" transform="translate(90,144)"/>
<path d="M0 0 C2.02225194 3.0333779 2.99347524 5.61344489 4.125 9.0625 C4.47820312 10.12597656 4.83140625 11.18945312 5.1953125 12.28515625 C6 15 6 15 6 17 C5.34 17 4.68 17 4 17 C4 16.01 4 15.02 4 14 C3.01 14 2.02 14 1 14 C0.67 9.38 0.34 4.76 0 0 Z " fill="#1D8D1F" transform="translate(186,173)"/>
<path d="M0 0 C1.65 0.33 3.3 0.66 5 1 C5.66 3.64 6.32 6.28 7 9 C0.125 5.375 0.125 5.375 -1 2 C-0.67 1.34 -0.34 0.68 0 0 Z " fill="#0B900A" transform="translate(120,503)"/>
<path d="M0 0 C0.66 0 1.32 0 2 0 C2.67260351 1.76858691 3.33788395 3.53996016 4 5.3125 C4.37125 6.29863281 4.7425 7.28476563 5.125 8.30078125 C6 11 6 11 6 14 C5.01 13.67 4.02 13.34 3 13 C2.05078125 10.8203125 2.05078125 10.8203125 1.3125 8.125 C1.06113281 7.24070313 0.80976563 6.35640625 0.55078125 5.4453125 C0 3 0 3 0 0 Z M7 9 C7.33 9.66 7.66 10.32 8 11 C7.34 10.67 6.68 10.34 6 10 C6.33 9.67 6.66 9.34 7 9 Z " fill="#DFF3DF" transform="translate(172,126)"/>
<path d="M0 0 C2.01635978 3.02453967 3.03246502 5.63075348 4.1875 9.0625 C4.55230469 10.12597656 4.91710937 11.18945312 5.29296875 12.28515625 C6 15 6 15 5 17 C0.54316826 11.68055567 0.24240279 6.81151829 0 0 Z " fill="#3C993A" transform="translate(195,200)"/>
<path d="M0 0 C3.26845713 4.90268569 4.27944109 9.13173703 4 15 C2 14 2 14 0.875 11.4375 C-0.14837318 7.41710538 -0.14258282 4.13490187 0 0 Z " fill="#2F962F" transform="translate(171,126)"/>
<path d="M0 0 C1.65 0 3.3 0 5 0 C4.67 0.99 4.34 1.98 4 3 C4.99 3 5.98 3 7 3 C7.66 5.31 8.32 7.62 9 10 C5.73991357 6.83047153 2.77762123 3.60062011 0 0 Z " fill="#1B8D1E" transform="translate(62,454)"/>
<path d="M0 0 C0.99 0.33 1.98 0.66 3 1 C3 2.65 3 4.3 3 6 C3.66 6 4.32 6 5 6 C5.33 8.31 5.66 10.62 6 13 C2.57068046 9.2440786 1.43570917 4.76533255 0 0 Z " fill="#3C9D3C" transform="translate(22,387)"/>
<path d="M0 0 C1.32 0.66 2.64 1.32 4 2 C4 4.64 4 7.28 4 10 C3.01 10.33 2.02 10.66 1 11 C1.66 8.69 2.32 6.38 3 4 C1.68 3.34 0.36 2.68 -1 2 C-0.67 1.34 -0.34 0.68 0 0 Z " fill="#228E23" transform="translate(127,169)"/>
<path d="M0 0 C0.33 0 0.66 0 1 0 C0.22095672 10.55808656 0.22095672 10.55808656 -2 15 C-2.66 15 -3.32 15 -4 15 C-3.52229477 13.06213915 -3.04278429 11.12472326 -2.5625 9.1875 C-2.29566406 8.10855469 -2.02882812 7.02960938 -1.75390625 5.91796875 C-1.23922588 3.9259157 -0.65062825 1.95188476 0 0 Z " fill="#359734" transform="translate(147,119)"/>
<path d="M0 0 C2.475 0.99 2.475 0.99 5 2 C6.3125 5.625 6.3125 5.625 7 9 C6.01 9.495 6.01 9.495 5 10 C3.35 6.7 1.7 3.4 0 0 Z " fill="#1F921D" transform="translate(33,410)"/>
<path d="M0 0 C0.33 0 0.66 0 1 0 C1 3.3 1 6.6 1 10 C-0.32 10.33 -1.64 10.66 -3 11 C-2.01 7.37 -1.02 3.74 0 0 Z " fill="#2C982D" transform="translate(123,193)"/>
<path d="M0 0 C0.33 0.99 0.66 1.98 1 3 C-3.75 7 -3.75 7 -6 7 C-5.8125 5.1875 -5.8125 5.1875 -5 3 C-2.4375 1.25 -2.4375 1.25 0 0 Z " fill="#DFF1E1" transform="translate(233,140)"/>
<path d="M0 0 C1.485 0.99 1.485 0.99 3 2 C3.29296875 4.3828125 3.29296875 4.3828125 3.1875 7.125 C3.16042969 8.03507812 3.13335937 8.94515625 3.10546875 9.8828125 C3.07066406 10.58148438 3.03585938 11.28015625 3 12 C0.84267191 9.84267191 0.51705175 8.88177557 -0.1875 6 C-0.36667969 5.29875 -0.54585937 4.5975 -0.73046875 3.875 C-1 2 -1 2 0 0 Z " fill="#D1EED3" transform="translate(167,108)"/>
<path d="M0 0 C2.97 0.495 2.97 0.495 6 1 C6.66 3.31 7.32 5.62 8 8 C6.85073734 7.04578192 5.70569459 6.08647955 4.5625 5.125 C3.92441406 4.59132813 3.28632812 4.05765625 2.62890625 3.5078125 C1 2 1 2 0 0 Z " fill="#128815" transform="translate(71,464)"/>
<path d="M0 0 C0.99 0.33 1.98 0.66 3 1 C-1.455 4.465 -1.455 4.465 -6 8 C-6.33 7.01 -6.66 6.02 -7 5 C-6.01 5 -5.02 5 -4 5 C-4 4.01 -4 3.02 -4 2 C-2.68 2 -1.36 2 0 2 C0 1.34 0 0.68 0 0 Z " fill="#278C25" transform="translate(127,214)"/>
<path d="M0 0 C2.97 0.495 2.97 0.495 6 1 C5.625 3.4375 5.625 3.4375 5 6 C4.01 6.495 4.01 6.495 3 7 C1.79371992 4.66785852 0.8345262 2.50357861 0 0 Z " fill="#E1F1DD" transform="translate(157,85)"/>
<path d="M0 0 C3.17280351 0.43762807 6.05667611 1.77361505 9 3 C4.99799622 4.60080151 1.95443764 3.29279692 -2 2 C-1.34 1.34 -0.68 0.68 0 0 Z " fill="#088E08" transform="translate(203,544)"/>
<path d="M0 0 C2.375 0.3125 2.375 0.3125 5 1 C5.66 1.99 6.32 2.98 7 4 C6.67 4.99 6.34 5.98 6 7 C4.02 4.69 2.04 2.38 0 0 Z " fill="#168B17" transform="translate(88,481)"/>
<path d="M0 0 C0.33 0 0.66 0 1 0 C1 1.98 1 3.96 1 6 C1.66 6.33 2.32 6.66 3 7 C0.525 8.485 0.525 8.485 -2 10 C-1.34 6.7 -0.68 3.4 0 0 Z " fill="#3F9742" transform="translate(115,217)"/>
<path d="M0 0 C2.35953094 2.35953094 2.49141413 3.77895617 3 7 C1.35 7 -0.3 7 -2 7 C-1.34 4.69 -0.68 2.38 0 0 Z " fill="#3B963C" transform="translate(158,87)"/>
<path d="M0 0 C4.31392226 0.4793247 6.16569547 1.7457985 9 5 C4.98525763 5 3.18024863 3.33218233 0 1 C0 0.67 0 0.34 0 0 Z " fill="#0C8A12" transform="translate(128,512)"/>
<path d="M0 0 C1.32 0.33 2.64 0.66 4 1 C4.12375 1.804375 4.2475 2.60875 4.375 3.4375 C4.684375 4.7059375 4.684375 4.7059375 5 6 C5.66 6.33 6.32 6.66 7 7 C6.01 7 5.02 7 4 7 C2.02 3.535 2.02 3.535 0 0 Z " fill="#238F27" transform="translate(49,436)"/>
<path d="M0 0 C7.57142857 1.85714286 7.57142857 1.85714286 10 5 C9.67 5.66 9.34 6.32 9 7 C7.4972763 6.02501855 5.99788037 5.04490611 4.5 4.0625 C3.6646875 3.51722656 2.829375 2.97195312 1.96875 2.41015625 C1.3190625 1.94480469 0.669375 1.47945312 0 1 C0 0.67 0 0.34 0 0 Z " fill="#28912A" transform="translate(186,214)"/>
<path d="M0 0 C0.33 0 0.66 0 1 0 C1 2.64 1 5.28 1 8 C0.34 8 -0.32 8 -1 8 C-1.33 8.99 -1.66 9.98 -2 11 C-3 9 -3 9 -2.44140625 6.8359375 C-2.15136719 6.02382812 -1.86132812 5.21171875 -1.5625 4.375 C-1.27503906 3.55773437 -0.98757812 2.74046875 -0.69140625 1.8984375 C-0.46324219 1.27195313 -0.23507813 0.64546875 0 0 Z " fill="#30962F" transform="translate(127,181)"/>
<path d="M0 0 C0.33 0 0.66 0 1 0 C1.25 3.25 1.25 3.25 1 7 C-0.32 8.32 -1.64 9.64 -3 11 C-2.01 7.37 -1.02 3.74 0 0 Z " fill="#369636" transform="translate(151,107)"/>
<path d="M0 0 C0.99 0.33 1.98 0.66 3 1 C0.63707344 3.52588702 -0.66462511 4.88820837 -4 6 C-2.25 1.125 -2.25 1.125 0 0 Z " fill="#239122" transform="translate(147,199)"/>
<path d="M0 0 C1.65 1.32 3.3 2.64 5 4 C2.03 4 -0.94 4 -4 4 C-2.68 2.68 -1.36 1.36 0 0 Z " fill="#CCF2C7" transform="translate(158,194)"/>
<path d="M0 0 C-2.31 1.65 -4.62 3.3 -7 5 C-7 3.68 -7 2.36 -7 1 C-3.375 -1.125 -3.375 -1.125 0 0 Z " fill="#269026" transform="translate(203,162)"/>
<path d="M0 0 C3.465 1.98 3.465 1.98 7 4 C7 4.99 7 5.98 7 7 C4.5 5.625 4.5 5.625 2 4 C2 3.34 2 2.68 2 2 C1.34 2 0.68 2 0 2 C0 1.34 0 0.68 0 0 Z " fill="#C9EECC" transform="translate(104,155)"/>
<path d="M0 0 C0.33 0.66 0.66 1.32 1 2 C1.66 2.33 2.32 2.66 3 3 C2.34 3 1.68 3 1 3 C0.67 3.99 0.34 4.98 0 6 C-1.5 4.625 -1.5 4.625 -3 3 C-3 2.34 -3 1.68 -3 1 C-2.01 0.67 -1.02 0.34 0 0 Z " fill="#1F9421" transform="translate(42,419)"/>
<path d="M0 0 C0.66 0.99 1.32 1.98 2 3 C-2.625 5.125 -2.625 5.125 -6 4 C-4.02 2.68 -2.04 1.36 0 0 Z " fill="#D5EDD4" transform="translate(143,205)"/>
<path d="M0 0 C1.32 0.33 2.64 0.66 4 1 C3.67 3.31 3.34 5.62 3 8 C1.0549 5.08235 0.54723683 3.37462715 0 0 Z " fill="#DCF3DD" transform="translate(195,198)"/>
<path d="M0 0 C0.99 0.33 1.98 0.66 3 1 C0.69 2.65 -1.62 4.3 -4 6 C-4 5.01 -4 4.02 -4 3 C-3.34 3 -2.68 3 -2 3 C-2 2.34 -2 1.68 -2 1 C-1.34 0.67 -0.68 0.34 0 0 Z " fill="#268C25" transform="translate(218,148)"/>
</svg>
