<?xml version="1.0" standalone="no"?>
<!DOCTYPE svg PUBLIC "-//W3C//DTD SVG 20010904//EN"
 "http://www.w3.org/TR/2001/REC-SVG-20010904/DTD/svg10.dtd">
<svg version="1.0" xmlns="http://www.w3.org/2000/svg"
 width="451.000000pt" height="387.000000pt" viewBox="0 0 451.000000 387.000000"
 preserveAspectRatio="xMidYMid meet">

<g transform="translate(0.000000,387.000000) scale(0.100000,-0.100000)"
fill="#000000" stroke="none">
<path d="M2440 3810 c-362 -44 -707 -298 -880 -647 -53 -107 -110 -297 -93
-314 4 -4 135 -9 290 -9 237 -1 297 -4 380 -21 175 -35 317 -91 473 -188 81
-51 86 -52 122 -42 l38 12 0 169 0 168 -154 4 -155 3 -30 29 c-23 22 -31 39
-31 64 0 85 36 102 224 102 l145 0 5 33 c3 17 8 67 10 109 6 85 14 109 48 132
42 30 103 14 130 -32 13 -22 15 -48 11 -134 l-6 -108 405 0 c404 0 405 0 439
-23 59 -40 61 -116 2 -154 -25 -16 -62 -18 -440 -21 l-413 -3 0 -145 0 -146
123 7 c78 5 162 3 231 -5 l108 -12 52 51 c31 31 64 53 83 57 28 6 37 2 68 -29
39 -39 44 -70 20 -117 -15 -29 -15 -29 29 -55 59 -35 142 -125 169 -182 30
-66 29 -196 -1 -271 -34 -87 -102 -191 -135 -208 -62 -32 -137 12 -137 80 0
19 13 51 33 81 68 102 87 209 48 268 -20 32 -75 71 -127 93 l-35 15 -117 -119
c-64 -65 -148 -147 -186 -181 l-68 -62 25 -57 c23 -52 48 -130 76 -237 14 -56
31 -207 31 -287 0 -47 4 -68 13 -69 6 0 19 -2 27 -4 24 -5 252 -53 280 -58 14
-3 157 -33 319 -66 161 -34 297 -61 301 -59 5 2 -27 111 -71 243 -43 132 -79
250 -79 262 0 14 27 52 71 100 228 252 329 504 329 823 0 337 -119 617 -362
851 -143 138 -312 232 -523 290 -77 21 -100 22 -565 24 -267 2 -514 -1 -550
-5z"/>
<path d="M995 2629 c-472 -100 -826 -456 -920 -923 -22 -112 -20 -375 5 -482
52 -222 141 -390 291 -549 71 -76 79 -88 79 -124 0 -23 -32 -134 -75 -264 -41
-123 -75 -228 -75 -234 0 -11 35 -5 470 87 162 34 338 71 390 82 52 10 102 21
110 23 189 45 281 55 490 55 293 0 439 27 625 114 224 105 428 300 540 515 39
76 88 214 107 301 28 133 29 358 0 490 -22 103 -84 264 -129 337 -15 25 -37
59 -47 77 -110 180 -330 355 -552 439 -188 72 -240 77 -758 76 -413 -1 -470
-3 -551 -20z m566 -385 c18 -9 36 -30 45 -52 8 -20 19 -46 24 -57 14 -31 540
-1355 556 -1399 26 -72 -17 -136 -90 -136 -51 0 -73 35 -175 290 l-98 245
-305 3 -305 2 -11 -24 c-6 -13 -49 -121 -96 -240 -47 -119 -91 -225 -98 -236
-20 -32 -63 -45 -107 -32 -40 13 -61 43 -61 89 0 14 119 323 264 687 145 363
278 697 295 742 47 121 93 154 162 118z"/>
<path d="M1504 1874 c-4 -10 -54 -135 -111 -277 -57 -142 -103 -260 -103 -263
0 -2 101 -4 225 -4 129 0 225 4 225 9 0 15 -210 535 -220 545 -6 6 -12 2 -16
-10z"/>
<path d="M3058 2461 c-43 -4 -80 -10 -83 -13 -7 -7 24 -180 35 -198 12 -19 43
3 154 114 l95 94 -37 6 c-40 6 -49 6 -164 -3z"/>
</g>
</svg>
